<svg width="15" height="16" viewBox="0 0 15 16" fill="none" xmlns="http://www.w3.org/2000/svg">
<path d="M8.67188 11.9994H6.32812C5.93848 11.9994 5.625 11.665 5.625 11.2493V5.99854H3.05566C2.53418 5.99854 2.27344 5.32656 2.64258 4.93275L7.09863 0.175807C7.31836 -0.0586023 7.67871 -0.0586023 7.89844 0.175807L12.3574 4.93275C12.7266 5.32656 12.4658 5.99854 11.9443 5.99854H9.375V11.2493C9.375 11.665 9.06152 11.9994 8.67188 11.9994ZM15 11.7494V15.2499C15 15.6656 14.6865 16 14.2969 16H0.703125C0.313477 16 0 15.6656 0 15.2499V11.7494C0 11.3337 0.313477 10.9993 0.703125 10.9993H4.6875V11.2493C4.6875 12.2151 5.42285 12.9996 6.32812 12.9996H8.67188C9.57715 12.9996 10.3125 12.2151 10.3125 11.2493V10.9993H14.2969C14.6865 10.9993 15 11.3337 15 11.7494ZM11.3672 14.4998C11.3672 14.156 11.1035 13.8747 10.7812 13.8747C10.459 13.8747 10.1953 14.156 10.1953 14.4998C10.1953 14.8436 10.459 15.1249 10.7812 15.1249C11.1035 15.1249 11.3672 14.8436 11.3672 14.4998ZM13.2422 14.4998C13.2422 14.156 12.9785 13.8747 12.6562 13.8747C12.334 13.8747 12.0703 14.156 12.0703 14.4998C12.0703 14.8436 12.334 15.1249 12.6562 15.1249C12.9785 15.1249 13.2422 14.8436 13.2422 14.4998Z" fill="#03A0B0"/>
</svg>
